<svg width="150" height="150" viewBox="0 0 150 150" fill="none" xmlns="http://www.w3.org/2000/svg">
<g clip-path="url(#clip0_13_29)">
<mask id="mask0_13_29" style="mask-type:luminance" maskUnits="userSpaceOnUse" x="0" y="0" width="150" height="150">
<path d="M150 0H0V150H150V0Z" fill="white"/>
</mask>
<g mask="url(#mask0_13_29)">
<path d="M147.171 68.3167L81.6797 2.82876C77.9103 -0.942919 71.7932 -0.942919 68.0191 2.82876L54.4195 16.4284L71.6713 33.6801C75.6803 32.3255 80.2775 33.2342 83.4732 36.43C86.6842 39.6462 87.5865 44.2827 86.199 48.3046L102.825 64.9311C106.847 63.5454 111.489 64.4419 114.701 67.6598C119.191 72.1481 119.191 79.4225 114.701 83.9137C110.21 88.4055 102.936 88.4055 98.4422 83.9137C95.0648 80.5329 94.2305 75.5729 95.9402 71.4122L80.4352 55.9071L80.4334 96.71C81.5574 97.2658 82.584 97.9999 83.4732 98.8839C87.9633 103.372 87.9633 110.647 83.4732 115.142C78.982 119.631 71.7041 119.631 67.2193 115.142C62.7293 110.647 62.7293 103.373 67.2193 98.8844C68.2953 97.8079 69.5741 96.9553 70.9816 96.376V55.1928C69.572 54.6174 68.2926 53.7644 67.2193 52.6844C63.8174 49.2872 62.9994 44.2956 64.7426 40.1184L47.7363 23.1104L2.83008 68.0137C-0.94336 71.7889 -0.94336 77.9067 2.83008 81.679L68.3227 147.168C72.0932 150.94 78.2092 150.94 81.9844 147.168L147.171 81.9831C150.943 78.2096 150.943 72.0884 147.171 68.3167Z" fill="#DE4C36"/>
</g>
</g>
<defs>
<clipPath id="clip0_13_29">
<rect width="150" height="150" fill="white"/>
</clipPath>
</defs>
</svg>
